<?xml version="1.0" encoding="UTF-8" standalone="no"?>
<!-- Created with Inkscape (http://www.inkscape.org/) -->

<svg
   xmlns:dc="http://purl.org/dc/elements/1.1/"
   xmlns:cc="http://creativecommons.org/ns#"
   xmlns:rdf="http://www.w3.org/1999/02/22-rdf-syntax-ns#"
   xmlns:svg="http://www.w3.org/2000/svg"
   xmlns="http://www.w3.org/2000/svg"
   xmlns:sodipodi="http://sodipodi.sourceforge.net/DTD/sodipodi-0.dtd"
   xmlns:inkscape="http://www.inkscape.org/namespaces/inkscape"
   width="128"
   height="128"
   id="svg2"
   version="1.1"
   inkscape:version="0.48.4 r9939"
   sodipodi:docname="logos.svg">
  <defs
     id="defs4" />
  <sodipodi:namedview
     id="base"
     pagecolor="#ffffff"
     bordercolor="#666666"
     borderopacity="1.0"
     inkscape:pageopacity="0.0"
     inkscape:pageshadow="2"
     inkscape:zoom="4"
     inkscape:cx="129.21407"
     inkscape:cy="67.971633"
     inkscape:document-units="px"
     inkscape:current-layer="layer1"
     showgrid="false"
     inkscape:snap-bbox="true"
     inkscape:window-width="1863"
     inkscape:window-height="1176"
     inkscape:window-x="57"
     inkscape:window-y="24"
     inkscape:window-maximized="1">
    <inkscape:grid
       type="xygrid"
       id="grid2985"
       empspacing="5"
       visible="true"
       enabled="true"
       snapvisiblegridlinesonly="true" />
  </sodipodi:namedview>
  <metadata
     id="metadata7">
    <rdf:RDF>
      <cc:Work
         rdf:about="">
        <dc:format>image/svg+xml</dc:format>
        <dc:type
           rdf:resource="http://purl.org/dc/dcmitype/StillImage" />
        <dc:title></dc:title>
      </cc:Work>
    </rdf:RDF>
  </metadata>
  <g
     inkscape:label="Layer 1"
     inkscape:groupmode="layer"
     id="layer1"
     transform="translate(0,-924.36218)">
    <rect
       style="opacity:0.81720001;fill:#000000;stroke:#ffffff;stroke-width:1.3082583;stroke-linecap:square;stroke-linejoin:miter;stroke-opacity:1"
       id="rect3013"
       width="175.96336"
       height="113.08138"
       x="-61.465179"
       y="1054.2842" />
    <rect
       style="opacity:0.81720000999999998;fill:#000000;stroke:#000000;stroke-opacity:1.0"
       id="rect2987"
       width="122"
       height="122"
       x="3"
       y="3"
       transform="translate(0,924.36218)" />
    <path
       style="fill:none;stroke:#000000;stroke-width:1px;stroke-linecap:butt;stroke-linejoin:miter;stroke-opacity:1"
       d="M 125,3 3,3 l 0,122 22,0 0,-87 15,-15 85,0 z"
       id="path2989"
       inkscape:connector-curvature="0"
       transform="translate(0,924.36218)"
       inkscape:export-filename="/home/jared/clone/ff/chrome-ext/ext/icons/large.png"
       inkscape:export-xdpi="182.92683"
       inkscape:export-ydpi="182.92683" />
    <path
       style="fill:none;stroke:#000000;stroke-width:1px;stroke-linecap:butt;stroke-linejoin:miter;stroke-opacity:1"
       d="m 30,125 0,-84 13,-13 82,0 0,97 z"
       id="path2991"
       inkscape:connector-curvature="0"
       transform="translate(0,924.36218)"
       sodipodi:nodetypes="cccccc" />
    <g
       id="g3067"
       transform="matrix(1.5031332,0,0,1.5031332,-38.037635,-503.514)">
      <path
         sodipodi:nodetypes="ccccccccccccccccccccccccccccccccccc"
         inkscape:connector-curvature="0"
         id="path2993"
         d="m 75.101523,1026.2569 1,-22 -10,-10.00004 -10,0 0,-2 11,0 9,9.00004 0,-4.00004 -5,-8 -14,-7.00001 1,-2 15,7.00001 3,5 -2,-15.00001 2,-2 2,14.00001 5,-10.00001 8,0 0,2 -7,0 -4,10.00001 5,-2 6,1 -1,2 -5,-1 -6,4 0,4 7,-3 9,1 0,2 -9,-1 -6,3.00004 -1,3 1,22 z"
         style="fill:none;stroke:#ffffff;stroke-width:1px;stroke-linecap:butt;stroke-linejoin:miter;stroke-opacity:1" />
      <path
         transform="translate(1.1015252,901.25683)"
         d="m 64,97.5 c 0,1.380712 -1.119288,2.5 -2.5,2.5 -1.380712,0 -2.5,-1.119288 -2.5,-2.5 0,-1.380712 1.119288,-2.5 2.5,-2.5 1.380712,0 2.5,1.119288 2.5,2.5 z"
         sodipodi:ry="2.5"
         sodipodi:rx="2.5"
         sodipodi:cy="97.5"
         sodipodi:cx="61.5"
         id="path2995"
         style="opacity:0.81720001;fill:#ff0000;stroke:none"
         sodipodi:type="arc" />
      <path
         sodipodi:type="arc"
         style="opacity:0.81720001;fill:#ff0000;stroke:none"
         id="path2997"
         sodipodi:cx="61.5"
         sodipodi:cy="97.5"
         sodipodi:rx="2.5"
         sodipodi:ry="2.5"
         d="m 64,97.5 c 0,1.380712 -1.119288,2.5 -2.5,2.5 -1.380712,0 -2.5,-1.119288 -2.5,-2.5 0,-1.380712 1.119288,-2.5 2.5,-2.5 1.380712,0 2.5,1.119288 2.5,2.5 z"
         transform="translate(29.101523,905.25683)" />
      <path
         transform="translate(28.101523,888.25683)"
         d="m 64,97.5 c 0,1.380712 -1.119288,2.5 -2.5,2.5 -1.380712,0 -2.5,-1.119288 -2.5,-2.5 0,-1.380712 1.119288,-2.5 2.5,-2.5 1.380712,0 2.5,1.119288 2.5,2.5 z"
         sodipodi:ry="2.5"
         sodipodi:rx="2.5"
         sodipodi:cy="97.5"
         sodipodi:cx="61.5"
         id="path2999"
         style="opacity:0.81720001;fill:#ff0000;stroke:none"
         sodipodi:type="arc" />
      <path
         sodipodi:type="arc"
         style="opacity:0.81720001;fill:#ff0000;stroke:none"
         id="path3001"
         sodipodi:cx="61.5"
         sodipodi:cy="97.5"
         sodipodi:rx="2.5"
         sodipodi:ry="2.5"
         d="m 64,97.5 c 0,1.380712 -1.119288,2.5 -2.5,2.5 -1.380712,0 -2.5,-1.119288 -2.5,-2.5 0,-1.380712 1.119288,-2.5 2.5,-2.5 1.380712,0 2.5,1.119288 2.5,2.5 z"
         transform="translate(8.1015232,882.25683)" />
    </g>
    <g
       id="g3042"
       transform="translate(55.810928,-2.5253813)">
      <path
         style="fill:#ffffff;stroke:#ffffff;stroke-width:1px;stroke-linecap:butt;stroke-linejoin:miter;stroke-opacity:1"
         d="m -28.944187,1116.918 1,-22 -10,-10 -10,0 0,-2 11,0 9,9 0,-4 -5,-8 -14,-7 1,-2 15,7 3,5 -2,-15 2,-2 2,14 5,-10 8,0 0,2 -7,0 -4,10 5,-2 6,1 -1,2 -5,-1 -6,4 0,4 7,-3 9.0000002,1 0,2 -9.0000002,-1 -6,3 -1,3 1,22 z"
         id="path3003"
         inkscape:connector-curvature="0"
         sodipodi:nodetypes="ccccccccccccccccccccccccccccccccccc" />
      <path
         sodipodi:type="arc"
         style="fill:#ffffff;stroke:none"
         id="path3005"
         sodipodi:cx="61.5"
         sodipodi:cy="97.5"
         sodipodi:rx="2.5"
         sodipodi:ry="2.5"
         d="m 64,97.5 c 0,1.380712 -1.119288,2.5 -2.5,2.5 -1.380712,0 -2.5,-1.119288 -2.5,-2.5 0,-1.380712 1.119288,-2.5 2.5,-2.5 1.380712,0 2.5,1.119288 2.5,2.5 z"
         transform="translate(-102.94419,991.91802)" />
      <path
         transform="translate(-74.944187,995.91802)"
         d="m 64,97.5 c 0,1.380712 -1.119288,2.5 -2.5,2.5 -1.380712,0 -2.5,-1.119288 -2.5,-2.5 0,-1.380712 1.119288,-2.5 2.5,-2.5 1.380712,0 2.5,1.119288 2.5,2.5 z"
         sodipodi:ry="2.5"
         sodipodi:rx="2.5"
         sodipodi:cy="97.5"
         sodipodi:cx="61.5"
         id="path3007"
         style="fill:#ffffff;stroke:none"
         sodipodi:type="arc" />
      <path
         sodipodi:type="arc"
         style="fill:#ffffff;stroke:none"
         id="path3009"
         sodipodi:cx="61.5"
         sodipodi:cy="97.5"
         sodipodi:rx="2.5"
         sodipodi:ry="2.5"
         d="m 64,97.5 c 0,1.380712 -1.119288,2.5 -2.5,2.5 -1.380712,0 -2.5,-1.119288 -2.5,-2.5 0,-1.380712 1.119288,-2.5 2.5,-2.5 1.380712,0 2.5,1.119288 2.5,2.5 z"
         transform="translate(-75.944187,978.91802)" />
      <path
         transform="translate(-95.944187,972.91802)"
         d="m 64,97.5 c 0,1.380712 -1.119288,2.5 -2.5,2.5 -1.380712,0 -2.5,-1.119288 -2.5,-2.5 0,-1.380712 1.119288,-2.5 2.5,-2.5 1.380712,0 2.5,1.119288 2.5,2.5 z"
         sodipodi:ry="2.5"
         sodipodi:rx="2.5"
         sodipodi:cy="97.5"
         sodipodi:cx="61.5"
         id="path3011"
         style="fill:#ffffff;stroke:none"
         sodipodi:type="arc" />
    </g>
    <g
       id="g3035"
       transform="translate(32.57742,-13.889598)">
      <path
         sodipodi:nodetypes="ccccccccccccccccccccccccccccccccccc"
         inkscape:connector-curvature="0"
         id="path3015"
         d="m 55.151012,1125.2518 1,-22 -10,-10 -10,0 0,-2 11,0 9,9 0,-4 -5,-8 -14,-7 1,-2 15,7 3,5 -2,-15 2,-2 2,14 5,-10 8,0 0,2 -7,0 -4,10 5,-2 6,1 -1,2 -5,-1 -6,4 0,4 7,-3 9.000001,1 0,2 -9.000001,-1 -6,3 -1,3 1,22 z"
         style="fill:none;stroke:#ffffff;stroke-width:1px;stroke-linecap:butt;stroke-linejoin:miter;stroke-opacity:1" />
      <path
         transform="translate(-18.848991,1000.2518)"
         d="m 64,97.5 c 0,1.380712 -1.119288,2.5 -2.5,2.5 -1.380712,0 -2.5,-1.119288 -2.5,-2.5 0,-1.380712 1.119288,-2.5 2.5,-2.5 1.380712,0 2.5,1.119288 2.5,2.5 z"
         sodipodi:ry="2.5"
         sodipodi:rx="2.5"
         sodipodi:cy="97.5"
         sodipodi:cx="61.5"
         id="path3017"
         style="fill:#ffffff;stroke:none"
         sodipodi:type="arc" />
      <path
         sodipodi:type="arc"
         style="fill:#ffffff;stroke:none"
         id="path3019"
         sodipodi:cx="61.5"
         sodipodi:cy="97.5"
         sodipodi:rx="2.5"
         sodipodi:ry="2.5"
         d="m 64,97.5 c 0,1.380712 -1.119288,2.5 -2.5,2.5 -1.380712,0 -2.5,-1.119288 -2.5,-2.5 0,-1.380712 1.119288,-2.5 2.5,-2.5 1.380712,0 2.5,1.119288 2.5,2.5 z"
         transform="translate(9.1510125,1004.2518)" />
      <path
         transform="translate(8.1510125,987.25178)"
         d="m 64,97.5 c 0,1.380712 -1.119288,2.5 -2.5,2.5 -1.380712,0 -2.5,-1.119288 -2.5,-2.5 0,-1.380712 1.119288,-2.5 2.5,-2.5 1.380712,0 2.5,1.119288 2.5,2.5 z"
         sodipodi:ry="2.5"
         sodipodi:rx="2.5"
         sodipodi:cy="97.5"
         sodipodi:cx="61.5"
         id="path3021"
         style="fill:#ffffff;stroke:none"
         sodipodi:type="arc" />
      <path
         sodipodi:type="arc"
         style="fill:#ffffff;stroke:none"
         id="path3023"
         sodipodi:cx="61.5"
         sodipodi:cy="97.5"
         sodipodi:rx="2.5"
         sodipodi:ry="2.5"
         d="m 64,97.5 c 0,1.380712 -1.119288,2.5 -2.5,2.5 -1.380712,0 -2.5,-1.119288 -2.5,-2.5 0,-1.380712 1.119288,-2.5 2.5,-2.5 1.380712,0 2.5,1.119288 2.5,2.5 z"
         transform="translate(-11.848988,981.25178)" />
    </g>
    <path
       sodipodi:nodetypes="ccccccccccccccccccccccccccccccccccc"
       inkscape:connector-curvature="0"
       id="path3025"
       d="m -32.227183,1112.1198 0.999999,-22 -9.999999,-10 -10,0 0,-2 11,0 8.999999,9 0,-4 -4.999999,-8 -14,-7 1,-2 15,7 2.999999,5 -1.999999,-15 1.999999,-2 2,14 5,-10 8,0 0,2 -7,0 -4,10 5,-2 6,1 -1,2 -5,-1 -6,4 0,4 7,-3 9.000001,1 0,2 -9.000001,-1 -6,3 -1,3 1,22 z"
       style="fill:none;stroke:#aa4400;stroke-width:1px;stroke-linecap:butt;stroke-linejoin:miter;stroke-opacity:1" />
    <path
       transform="translate(-106.22719,987.11985)"
       d="m 64,97.5 c 0,1.380712 -1.119288,2.5 -2.5,2.5 -1.380712,0 -2.5,-1.119288 -2.5,-2.5 0,-1.380712 1.119288,-2.5 2.5,-2.5 1.380712,0 2.5,1.119288 2.5,2.5 z"
       sodipodi:ry="2.5"
       sodipodi:rx="2.5"
       sodipodi:cy="97.5"
       sodipodi:cx="61.5"
       id="path3027"
       style="fill:#ffffff;stroke:none"
       sodipodi:type="arc" />
    <path
       sodipodi:type="arc"
       style="fill:#ffffff;stroke:none"
       id="path3029"
       sodipodi:cx="61.5"
       sodipodi:cy="97.5"
       sodipodi:rx="2.5"
       sodipodi:ry="2.5"
       d="m 64,97.5 c 0,1.380712 -1.119288,2.5 -2.5,2.5 -1.380712,0 -2.5,-1.119288 -2.5,-2.5 0,-1.380712 1.119288,-2.5 2.5,-2.5 1.380712,0 2.5,1.119288 2.5,2.5 z"
       transform="translate(-78.227183,991.11985)" />
    <path
       transform="translate(-79.227183,974.11975)"
       d="m 64,97.5 c 0,1.380712 -1.119288,2.5 -2.5,2.5 -1.380712,0 -2.5,-1.119288 -2.5,-2.5 0,-1.380712 1.119288,-2.5 2.5,-2.5 1.380712,0 2.5,1.119288 2.5,2.5 z"
       sodipodi:ry="2.5"
       sodipodi:rx="2.5"
       sodipodi:cy="97.5"
       sodipodi:cx="61.5"
       id="path3031"
       style="fill:#ffffff;stroke:none"
       sodipodi:type="arc" />
    <path
       sodipodi:type="arc"
       style="fill:#ffffff;stroke:none"
       id="path3033"
       sodipodi:cx="61.5"
       sodipodi:cy="97.5"
       sodipodi:rx="2.5"
       sodipodi:ry="2.5"
       d="m 64,97.5 c 0,1.380712 -1.119288,2.5 -2.5,2.5 -1.380712,0 -2.5,-1.119288 -2.5,-2.5 0,-1.380712 1.119288,-2.5 2.5,-2.5 1.380712,0 2.5,1.119288 2.5,2.5 z"
       transform="translate(-99.227184,968.11975)" />
    <g
       transform="translate(29.294424,39.901026)"
       id="g3049">
      <path
         sodipodi:nodetypes="ccccccccccccccccccccccccccccccccccc"
         inkscape:connector-curvature="0"
         id="path3051"
         d="m -28.944187,1116.918 1,-22 -10,-10 -10,0 0,-2 11,0 9,9 0,-4 -5,-8 -14,-7 1,-2 15,7 3,5 -2,-15 2,-2 2,14 5,-10 8,0 0,2 -7,0 -4,10 5,-2 6,1 -1,2 -5,-1 -6,4 0,4 7,-3 9.0000002,1 0,2 -9.0000002,-1 -6,3 -1,3 1,22 z"
         style="fill:#aa4400;stroke:#aa4400;stroke-width:1px;stroke-linecap:butt;stroke-linejoin:miter;stroke-opacity:1" />
      <path
         transform="translate(-102.94419,991.91802)"
         d="m 64,97.5 c 0,1.380712 -1.119288,2.5 -2.5,2.5 -1.380712,0 -2.5,-1.119288 -2.5,-2.5 0,-1.380712 1.119288,-2.5 2.5,-2.5 1.380712,0 2.5,1.119288 2.5,2.5 z"
         sodipodi:ry="2.5"
         sodipodi:rx="2.5"
         sodipodi:cy="97.5"
         sodipodi:cx="61.5"
         id="path3053"
         style="fill:#ffffff;stroke:none"
         sodipodi:type="arc" />
      <path
         sodipodi:type="arc"
         style="fill:#ffffff;stroke:none"
         id="path3055"
         sodipodi:cx="61.5"
         sodipodi:cy="97.5"
         sodipodi:rx="2.5"
         sodipodi:ry="2.5"
         d="m 64,97.5 c 0,1.380712 -1.119288,2.5 -2.5,2.5 -1.380712,0 -2.5,-1.119288 -2.5,-2.5 0,-1.380712 1.119288,-2.5 2.5,-2.5 1.380712,0 2.5,1.119288 2.5,2.5 z"
         transform="translate(-74.944187,995.91802)" />
      <path
         transform="translate(-75.944187,978.91802)"
         d="m 64,97.5 c 0,1.380712 -1.119288,2.5 -2.5,2.5 -1.380712,0 -2.5,-1.119288 -2.5,-2.5 0,-1.380712 1.119288,-2.5 2.5,-2.5 1.380712,0 2.5,1.119288 2.5,2.5 z"
         sodipodi:ry="2.5"
         sodipodi:rx="2.5"
         sodipodi:cy="97.5"
         sodipodi:cx="61.5"
         id="path3057"
         style="fill:#ffffff;stroke:none"
         sodipodi:type="arc" />
      <path
         sodipodi:type="arc"
         style="fill:#ffffff;stroke:none"
         id="path3059"
         sodipodi:cx="61.5"
         sodipodi:cy="97.5"
         sodipodi:rx="2.5"
         sodipodi:ry="2.5"
         d="m 64,97.5 c 0,1.380712 -1.119288,2.5 -2.5,2.5 -1.380712,0 -2.5,-1.119288 -2.5,-2.5 0,-1.380712 1.119288,-2.5 2.5,-2.5 1.380712,0 2.5,1.119288 2.5,2.5 z"
         transform="translate(-95.944187,972.91802)" />
    </g>
    <rect
       style="opacity:0.81999984;fill:#000000;stroke:none"
       id="rect3061"
       width="57.831234"
       height="57.831234"
       x="-99.752571"
       y="953.11469"
       inkscape:export-filename="/home/jared/clone/ff/chrome-ext/icons/icon16.png"
       inkscape:export-xdpi="24.900038"
       inkscape:export-ydpi="24.900038" />
    <g
       id="g3086"
       transform="translate(-146.43848,-18.726558)">
      <path
         style="fill:#ffffff;stroke:#ffffff;stroke-width:1px;stroke-linecap:butt;stroke-linejoin:miter;stroke-opacity:1"
         d="m 75.101523,1026.2569 1,-22 -10,-10.00004 -10,0 0,-2 11,0 9,9.00004 0,-4.00004 -5,-8 -14,-7.00001 1,-2 15,7.00001 3,5 -2,-15.00001 2,-2 2,14.00001 5,-10.00001 8,0 0,2 -7,0 -4,10.00001 5,-2 6,1 -1,2 -5,-1 -6,4 0,4 7,-3 9,1 0,2 -9,-1 -6,3.00004 -1,3 1,22 z"
         id="path3088"
         inkscape:connector-curvature="0"
         sodipodi:nodetypes="ccccccccccccccccccccccccccccccccccc" />
      <path
         sodipodi:type="arc"
         style="opacity:0.81720001;fill:#ff0000;stroke:none"
         id="path3090"
         sodipodi:cx="61.5"
         sodipodi:cy="97.5"
         sodipodi:rx="2.5"
         sodipodi:ry="2.5"
         d="m 64,97.5 c 0,1.380712 -1.119288,2.5 -2.5,2.5 -1.380712,0 -2.5,-1.119288 -2.5,-2.5 0,-1.380712 1.119288,-2.5 2.5,-2.5 1.380712,0 2.5,1.119288 2.5,2.5 z"
         transform="translate(1.1015252,901.25683)" />
      <path
         transform="translate(29.101523,905.25683)"
         d="m 64,97.5 c 0,1.380712 -1.119288,2.5 -2.5,2.5 -1.380712,0 -2.5,-1.119288 -2.5,-2.5 0,-1.380712 1.119288,-2.5 2.5,-2.5 1.380712,0 2.5,1.119288 2.5,2.5 z"
         sodipodi:ry="2.5"
         sodipodi:rx="2.5"
         sodipodi:cy="97.5"
         sodipodi:cx="61.5"
         id="path3092"
         style="opacity:0.81720001;fill:#ff0000;stroke:none"
         sodipodi:type="arc" />
      <path
         sodipodi:type="arc"
         style="opacity:0.81720001;fill:#ff0000;stroke:none"
         id="path3094"
         sodipodi:cx="61.5"
         sodipodi:cy="97.5"
         sodipodi:rx="2.5"
         sodipodi:ry="2.5"
         d="m 64,97.5 c 0,1.380712 -1.119288,2.5 -2.5,2.5 -1.380712,0 -2.5,-1.119288 -2.5,-2.5 0,-1.380712 1.119288,-2.5 2.5,-2.5 1.380712,0 2.5,1.119288 2.5,2.5 z"
         transform="translate(28.101523,888.25683)" />
      <path
         transform="translate(8.1015232,882.25683)"
         d="m 64,97.5 c 0,1.380712 -1.119288,2.5 -2.5,2.5 -1.380712,0 -2.5,-1.119288 -2.5,-2.5 0,-1.380712 1.119288,-2.5 2.5,-2.5 1.380712,0 2.5,1.119288 2.5,2.5 z"
         sodipodi:ry="2.5"
         sodipodi:rx="2.5"
         sodipodi:cy="97.5"
         sodipodi:cx="61.5"
         id="path3096"
         style="opacity:0.81720001;fill:#ff0000;stroke:none"
         sodipodi:type="arc" />
    </g>
    <rect
       inkscape:export-ydpi="199.20032"
       inkscape:export-xdpi="199.20032"
       inkscape:export-filename="/home/jared/clone/ff/chrome-ext/icons/icon128.png"
       y="1067.0094"
       x="135.36043"
       height="57.831234"
       width="57.831234"
       id="rect3098"
       style="opacity:0.81999978;fill:#000000;stroke:none" />
    <g
       id="g3074"
       transform="translate(88.674522,95.168141)">
      <path
         style="fill:none;stroke:#ffffff;stroke-width:1px;stroke-linecap:butt;stroke-linejoin:miter;stroke-opacity:1"
         d="m 75.101523,1026.2569 1,-22 -10,-10.00004 -10,0 0,-2 11,0 9,9.00004 0,-4.00004 -5,-8 -14,-7.00001 1,-2 15,7.00001 3,5 -2,-15.00001 2,-2 2,14.00001 5,-10.00001 8,0 0,2 -7,0 -4,10.00001 5,-2 6,1 -1,2 -5,-1 -6,4 0,4 7,-3 9,1 0,2 -9,-1 -6,3.00004 -1,3 1,22 z"
         id="path3076"
         inkscape:connector-curvature="0"
         sodipodi:nodetypes="ccccccccccccccccccccccccccccccccccc" />
      <path
         sodipodi:type="arc"
         style="opacity:0.81720001;fill:#ff0000;stroke:none"
         id="path3078"
         sodipodi:cx="61.5"
         sodipodi:cy="97.5"
         sodipodi:rx="2.5"
         sodipodi:ry="2.5"
         d="m 64,97.5 c 0,1.380712 -1.119288,2.5 -2.5,2.5 -1.380712,0 -2.5,-1.119288 -2.5,-2.5 0,-1.380712 1.119288,-2.5 2.5,-2.5 1.380712,0 2.5,1.119288 2.5,2.5 z"
         transform="translate(1.1015252,901.25683)" />
      <path
         transform="translate(29.101523,905.25683)"
         d="m 64,97.5 c 0,1.380712 -1.119288,2.5 -2.5,2.5 -1.380712,0 -2.5,-1.119288 -2.5,-2.5 0,-1.380712 1.119288,-2.5 2.5,-2.5 1.380712,0 2.5,1.119288 2.5,2.5 z"
         sodipodi:ry="2.5"
         sodipodi:rx="2.5"
         sodipodi:cy="97.5"
         sodipodi:cx="61.5"
         id="path3080"
         style="opacity:0.81720001;fill:#ff0000;stroke:none"
         sodipodi:type="arc" />
      <path
         sodipodi:type="arc"
         style="opacity:0.81720001;fill:#ff0000;stroke:none"
         id="path3082"
         sodipodi:cx="61.5"
         sodipodi:cy="97.5"
         sodipodi:rx="2.5"
         sodipodi:ry="2.5"
         d="m 64,97.5 c 0,1.380712 -1.119288,2.5 -2.5,2.5 -1.380712,0 -2.5,-1.119288 -2.5,-2.5 0,-1.380712 1.119288,-2.5 2.5,-2.5 1.380712,0 2.5,1.119288 2.5,2.5 z"
         transform="translate(28.101523,888.25683)" />
      <path
         transform="translate(8.1015232,882.25683)"
         d="m 64,97.5 c 0,1.380712 -1.119288,2.5 -2.5,2.5 -1.380712,0 -2.5,-1.119288 -2.5,-2.5 0,-1.380712 1.119288,-2.5 2.5,-2.5 1.380712,0 2.5,1.119288 2.5,2.5 z"
         sodipodi:ry="2.5"
         sodipodi:rx="2.5"
         sodipodi:cy="97.5"
         sodipodi:cx="61.5"
         id="path3084"
         style="opacity:0.81720001;fill:#ff0000;stroke:none"
         sodipodi:type="arc" />
    </g>
    <rect
       inkscape:export-ydpi="29.568796"
       inkscape:export-xdpi="29.568796"
       inkscape:export-filename="/home/jared/clone/ff/chrome-ext/icons/icon19.png"
       y="1034.6844"
       x="-149.50259"
       height="57.831234"
       width="57.831234"
       id="rect3100"
       style="opacity:0.81999972;fill:#000000;stroke:none" />
    <g
       transform="translate(-196.18849,62.84326)"
       id="g3102">
      <path
         sodipodi:nodetypes="ccccccccccccccccccccccccccccccccccc"
         inkscape:connector-curvature="0"
         id="path3104"
         d="m 73.757767,1038.4805 1.302885,-28.6635 -13.028844,-13.02884 -13.028843,0 0,-2.60582 14.331728,0 11.725959,11.72596 0,-5.2115 -6.514422,-10.42311 -18.240381,-9.12021 1.302885,-2.60577 19.543265,9.12021 3.908653,6.51442 -2.605769,-19.54328 2.605769,-2.60577 2.605768,18.2404 6.514422,-13.02886 10.298075,-2.625 1.375,3.35577 -10.370191,1.875 -5.211537,13.02885 6.514422,-2.60576 7.817306,1.30288 -1.302885,2.60577 -6.514421,-1.30289 -7.817306,5.21159 0,5.21156 9.12019,-3.90867 11.725955,1.30287 0,2.6058 -11.725955,-1.3029 -7.817306,3.9086 -1.302884,3.9087 1.302884,28.6635 z"
         style="fill:#ffffff;stroke:#ffffff;stroke-width:1.30288434px;stroke-linecap:butt;stroke-linejoin:miter;stroke-opacity:1" />
      <path
         transform="matrix(2.7192898,0,0,2.7192898,-110.14241,741.94206)"
         d="m 64,97.5 c 0,1.380712 -1.119288,2.5 -2.5,2.5 -1.380712,0 -2.5,-1.119288 -2.5,-2.5 0,-1.380712 1.119288,-2.5 2.5,-2.5 1.380712,0 2.5,1.119288 2.5,2.5 z"
         sodipodi:ry="2.5"
         sodipodi:rx="2.5"
         sodipodi:cy="97.5"
         sodipodi:cx="61.5"
         id="path3106"
         style="opacity:0.81720001;fill:#ff0000;stroke:none"
         sodipodi:type="arc" />
      <path
         sodipodi:type="arc"
         style="opacity:0.81720001;fill:#ff0000;stroke:none"
         id="path3108"
         sodipodi:cx="61.5"
         sodipodi:cy="97.5"
         sodipodi:rx="2.5"
         sodipodi:ry="2.5"
         d="m 64,97.5 c 0,1.380712 -1.119288,2.5 -2.5,2.5 -1.380712,0 -2.5,-1.119288 -2.5,-2.5 0,-1.380712 1.119288,-2.5 2.5,-2.5 1.380712,0 2.5,1.119288 2.5,2.5 z"
         transform="matrix(3.2,0,0,3.2,-104.94848,701.38183)" />
      <path
         transform="matrix(2.3,0,0,2.3,-42.973477,761.13183)"
         d="m 64,97.5 c 0,1.380712 -1.119288,2.5 -2.5,2.5 -1.380712,0 -2.5,-1.119288 -2.5,-2.5 0,-1.380712 1.119288,-2.5 2.5,-2.5 1.380712,0 2.5,1.119288 2.5,2.5 z"
         sodipodi:ry="2.5"
         sodipodi:rx="2.5"
         sodipodi:cy="97.5"
         sodipodi:cx="61.5"
         id="path3110"
         style="opacity:0.81720001;fill:#ff0000;stroke:none"
         sodipodi:type="arc" />
      <path
         sodipodi:type="arc"
         style="opacity:0.81720001;fill:#ff0000;stroke:none"
         id="path3112"
         sodipodi:cx="61.5"
         sodipodi:cy="97.5"
         sodipodi:rx="2.5"
         sodipodi:ry="2.5"
         d="m 64,97.5 c 0,1.380712 -1.119288,2.5 -2.5,2.5 -1.380712,0 -2.5,-1.119288 -2.5,-2.5 0,-1.380712 1.119288,-2.5 2.5,-2.5 1.380712,0 2.5,1.119288 2.5,2.5 z"
         transform="matrix(2,0,0,2,-57.148477,782.63183)" />
    </g>
  </g>
</svg>
